<svg xmlns="http://www.w3.org/2000/svg" xmlns:xlink="http://www.w3.org/1999/xlink" id="Layer_1" viewBox="0 0 512 512" xml:space="preserve"> <rect x="184.448" y="417.128" width="143.088" height="32"></rect> <polygon points="381.984,459.752 130.016,459.752 178.416,417.208 333.584,417.208 "></polygon> <rect x="311.552" y="355.688" width="32" height="77.536"></rect> <rect x="168.448" y="355.688" width="32" height="77.536"></rect> <path style="fill:#25B6D2;" d="M37.296,359.304C21.136,359.304,8,346.168,8,330.008V89.56C8,73.4,21.136,60.264,37.296,60.264 h437.408C490.864,60.264,504,73.4,504,89.56v240.448c0,16.16-13.136,29.296-29.296,29.296H37.296z"></path> <path d="M474.704,68.248C486.448,68.248,496,77.8,496,89.544v240.448c0,11.744-9.552,21.296-21.296,21.296H37.296 C25.552,351.304,16,341.752,16,330.008V89.544c0-11.744,9.552-21.296,21.296-21.296L474.704,68.248 M474.704,52.248H37.296 C16.784,52.248,0,69.032,0,89.544v240.448c0,20.512,16.784,37.296,37.296,37.296h437.408c20.512,0,37.296-16.784,37.296-37.296 V89.544C512,69.032,495.216,52.248,474.704,52.248L474.704,52.248z"></path> <g> <path style="fill:#FFFFFF;" d="M98.592,122.072h62.112V138.2H118.24v29.712h39.584v16.128H118.24v45.664H98.592V122.072z"></path> <path style="fill:#FFFFFF;" d="M175.792,123.512c7.36-1.28,18.368-2.24,29.712-2.24c15.488,0,26.032,2.544,33.2,8.608 c5.904,4.96,9.248,12.464,9.248,21.568c0,13.872-9.424,23.312-19.472,26.976v0.496c7.664,2.864,12.288,10.368,15.008,20.752 c3.344,13.408,6.224,25.872,8.464,30.016H231.68c-1.584-3.184-4.16-11.968-7.184-25.392c-3.04-14.048-8.144-18.528-19.328-18.832 h-9.888v44.224h-19.488L175.792,123.512L175.792,123.512z M195.296,171.096h11.664c13.248,0,21.552-7.04,21.552-17.728 c0-11.824-8.304-17.248-21.072-17.248c-6.224,0-10.224,0.496-12.128,0.96v34.016H195.296z"></path> <path style="fill:#FFFFFF;" d="M326.784,181.944H286.24v31.616h45.344v16.128h-64.992V122.072h62.592V138.2H286.24v27.792h40.544 V181.944z"></path> <path style="fill:#FFFFFF;" d="M408.928,181.944h-40.544v31.616h45.344v16.128h-64.992V122.072h62.592V138.2H368.4v27.792h40.544 v15.952H408.928z"></path> <path style="fill:#FFFFFF;" d="M100.128,287.128c3.104,1.792,7.744,3.328,12.624,3.328c6.112,0,9.52-2.864,9.52-7.12 c0-3.952-2.624-6.272-9.296-8.672c-8.592-3.088-14.08-7.664-14.08-15.168c0-8.512,7.12-15.008,18.416-15.008 c5.648,0,9.824,1.232,12.544,2.624l-2.32,7.648c-1.856-1.008-5.488-2.464-10.384-2.464c-6.032,0-8.656,3.248-8.656,6.272 c0,4.032,3.024,5.888,10,8.592c9.04,3.408,13.472,7.984,13.472,15.488c0,8.368-6.352,15.648-19.824,15.648 c-5.504,0-11.232-1.568-14.112-3.248L100.128,287.128z"></path> <path style="fill:#FFFFFF;" d="M150.064,245.32v20.912h22.064V245.32h9.52v52.192h-9.52V274.52h-22.064v22.992h-9.552V245.32 H150.064z"></path> <path style="fill:#FFFFFF;" d="M202.032,245.32v52.192h-9.536V245.32H202.032z"></path> <path style="fill:#FFFFFF;" d="M212.928,246.024c3.408-0.624,8.144-1.088,14.56-1.088c6.976,0,12.096,1.488,15.424,4.256 c3.088,2.576,5.104,6.656,5.104,11.536c0,4.96-1.536,9.072-4.48,11.84c-3.808,3.808-9.76,5.6-16.496,5.6 c-1.792,0-3.408-0.08-4.64-0.304v19.664h-9.456v-51.504H212.928z M222.4,270.328c1.152,0.304,2.72,0.384,4.64,0.384 c7.12,0,11.456-3.472,11.456-9.6c0-5.792-4.032-8.896-10.608-8.896c-2.624,0-4.48,0.224-5.488,0.48L222.4,270.328L222.4,270.328z"></path> <path style="fill:#FFFFFF;" d="M256.176,246.024c3.408-0.624,8.144-1.088,14.56-1.088c6.976,0,12.096,1.488,15.424,4.256 c3.088,2.576,5.104,6.656,5.104,11.536c0,4.96-1.536,9.072-4.48,11.84c-3.808,3.808-9.76,5.6-16.496,5.6 c-1.792,0-3.408-0.08-4.64-0.304v19.664h-9.456v-51.504H256.176z M265.632,270.328c1.152,0.304,2.72,0.384,4.64,0.384 c7.12,0,11.456-3.472,11.456-9.6c0-5.792-4.032-8.896-10.608-8.896c-2.624,0-4.48,0.224-5.488,0.48V270.328z"></path> <path style="fill:#FFFFFF;" d="M308.96,245.32v52.192h-9.536V245.32H308.96z"></path> <path style="fill:#FFFFFF;" d="M319.856,297.512V245.32h10.864l13.472,22.368c3.472,5.824,6.496,11.84,8.896,17.504h0.144 c-0.624-6.976-0.848-13.696-0.848-21.664v-18.192h8.816v52.192h-9.824L337.744,274.6c-3.328-5.712-6.8-12.144-9.36-18.032 l-0.24,0.08c0.384,6.72,0.48,13.616,0.48,22.208v18.672h-8.768V297.512z"></path> <path style="fill:#FFFFFF;" d="M413.968,295.096c-3.328,1.248-9.824,2.944-16.8,2.944c-8.848,0-15.488-2.24-20.432-6.976 c-4.64-4.4-7.36-11.296-7.28-19.184c0-16.496,11.76-27.104,29.04-27.104c6.416,0,11.456,1.312,13.856,2.464l-2.096,7.664 c-2.864-1.232-6.352-2.24-11.84-2.24c-11.152,0-18.976,6.576-18.976,18.736c0,11.84,7.28,18.896,18.112,18.896 c3.408,0,5.968-0.48,7.216-1.088V276.2h-9.216v-7.504h18.416L413.968,295.096L413.968,295.096z"></path> </g> </svg>