<svg xmlns="http://www.w3.org/2000/svg" width="800px" height="800px" viewBox="0 -69.15 412.415 412.415"><defs><style>.a{fill:#ffffff;}.b{fill:#ececec;}.c{fill:none;}.d{fill:#211715;}.e{fill:#6dbf6b;}.f{fill:#bdbdbd;}.g{fill:#ffda71;}</style></defs><path class="a" d="M381.041,226.805H66.979c-8.6,0-17.175-1.946-17.175-6.057v-7.3l6.456-3.356c9.356-4.864,28.521-14.622,35.336-17.459l3.8-1.582V6.121a3.684,3.684,0,0,1,3.684-3.684H359.488a3.679,3.679,0,0,1,3.684,3.678V190.09l4.424,2.539c6.815,2.837,25.98,12.6,35.336,17.459l6.456,3.356v7.3c0,4.111-8.571,6.057-19.443,6.057H75.883"></path><path class="b" d="M109.983,19.163V55.537a2,2,0,0,0,2.42,1.956c32.82-7.127,91.184-19.732,92.159-19.925,5.4-1.065,10.025,2.682,10.873,6.008,3.662,14.348,20.9,91.74,24.094,109.432.613,3.39-1.052,9.719-6.164,10.958-3.259.79-18.471,4.069-36.785,7.966a2,2,0,0,0,.413,3.956c57.516,0,124.7,0,148.758-.012a2,2,0,0,0,2-2V19.163a2,2,0,0,0-2-2H111.983A2,2,0,0,0,109.983,19.163Z"></path><line class="c" x1="95.502" y1="213.349" x2="77.706" y2="213.349"></line><path class="d" d="M365.572,187.2V8.446c0-2.12.111-4.218-1.266-6.012a6.266,6.266,0,0,0-4.949-2.4c-2.482-.075-4.979,0-7.462,0H105.673c-2.184,0-4.387-.083-6.571,0A6.208,6.208,0,0,0,93,6.123c-.025.649,0,1.3,0,1.953V58.244c0,3.089,4.8,3.094,4.8,0V8.076c0-1.282-.347-3.139,1.422-3.239.779-.044,1.573,0,2.352,0H356.94c.792,0,1.6-.041,2.388,0,2.078.108,1.444,3.275,1.444,4.784V187.2c0,3.088,4.8,3.093,4.8,0Z"></path><path class="d" d="M244.833,211.232h-31.1c-3.089,0-3.094,4.8,0,4.8h31.1c3.089,0,3.094-4.8,0-4.8Z"></path><path class="a" d="M100.01,213.912c26.145,0,71.58,0,99.129-.01"></path><path class="d" d="M100.01,216.312h37.2l41.57,0q10.181,0,20.361-.006c3.089,0,3.094-4.8,0-4.8q-19.1.007-38.2.008-20.646,0-41.29,0H100.01c-3.088,0-3.094,4.8,0,4.8Z"></path><path class="a" d="M258.991,213.912c26.145,0,104.109,0,131.658-.01"></path><path class="d" d="M258.991,216.312h48.327l58.906,0,24.425-.006c3.089,0,3.094-4.8,0-4.8q-24.664.009-49.33.008-29.313,0-58.625,0h-23.7c-3.088,0-3.094,4.8,0,4.8Z"></path><path class="a" d="M99.648,193.268c30.191,0,223.913,0,251.462-.01"></path><path class="d" d="M99.648,195.668h155.08l30.707,0H312.6l21.693,0q7.287,0,14.573,0h2.244c3.089,0,3.094-4.8,0-4.8l-12.534,0-20.214,0-25.92,0H99.648c-3.089,0-3.094,4.8,0,4.8Z"></path><path class="d" d="M407.554,216.231c0,1.374-.01,2.749,0,4.123,0,.168,0,.335,0,.5,0,.074.078-.12-.057.12a3.228,3.228,0,0,1-1.2,1,19.192,19.192,0,0,1-6.627,1.869,63.563,63.563,0,0,1-9.157.56c-1.342,0-2.685,0-4.027,0H97.883c-3.089,0-3.094,4.8,0,4.8H390.057c2.358,0,4.716-.062,7.065-.27,4.425-.392,10.415-.932,13.665-4.405,2.1-2.247,1.567-5.474,1.567-8.3,0-3.088-4.8-3.093-4.8,0Z"></path><path class="d" d="M366.958,194.943c-.564-.236.432.187.631.275.433.189.864.383,1.294.578q1.454.659,2.9,1.343,3.512,1.659,6.992,3.383,7.841,3.863,15.616,7.858,3.673,1.88,7.335,3.78c2.737,1.423,5.167-2.718,2.422-4.144-9.739-5.062-19.517-10.076-29.435-14.781-2.139-1.016-4.289-2.007-6.474-2.921a2.414,2.414,0,0,0-2.952,1.677,2.461,2.461,0,0,0,1.676,2.952Z"></path><path class="d" d="M250.238,106.126c2.981,7.383,5.83,14.828,8.982,22.141a2.351,2.351,0,0,0,2.072,1.189c11.048,0,22.1.047,33.142.071q3.1.006,6.19.01c3.088,0,3.093-4.8,0-4.8-10.865,0-21.729-.049-32.594-.071q-3.369-.007-6.738-.01l2.073,1.188a2.2,2.2,0,0,1-.18-.419c-.074-.5.182.437-.033-.078q-.22-.528-.44-1.055-.553-1.338-1.1-2.681-1.284-3.15-2.55-6.307c-1.4-3.484-2.79-6.973-4.2-10.454a2.476,2.476,0,0,0-2.952-1.677,2.416,2.416,0,0,0-1.676,2.953Z"></path><path class="d" d="M268.4,109.752c11.048,0,22.095.047,33.143.071q3.094.006,6.189.01c3.088,0,3.094-4.8,0-4.8-10.865,0-21.729-.049-32.594-.071q-3.369-.006-6.738-.01c-3.088,0-3.093,4.8,0,4.8Z"></path><path class="d" d="M264.084,142.857c12.8,0,25.6-.141,38.394-.2.64,0,1.291.03,1.93-.008a3.285,3.285,0,0,0,2.727-2.114,66.645,66.645,0,0,0,2.913-6.545c2.941-7.115,5.654-14.324,8.409-21.512,1.5-3.908,2.993-7.817,4.525-11.712.58-1.472,1.164-2.943,1.768-4.405.05-.122.1-.243.151-.364.261-.634-.115.266.044-.107.105-.243.208-.487.314-.729.181-.412.365-.822.563-1.227l-2.073,1.189q5.068,0,10.137,0c3.089,0,3.094-4.8,0-4.8q-5.069,0-10.137,0a2.372,2.372,0,0,0-2.072,1.189c-2.905,5.955-5.039,12.363-7.408,18.542-3,7.819-5.93,15.672-9.157,23.4q-.111.267-.223.533c.243-.578-.072.167-.117.273q-.2.471-.407.94c-.271.618-.547,1.235-.838,1.844-.209.437-.42.877-.663,1.3a3.336,3.336,0,0,0-.258.42c-.143.374.5-.528.145-.208l1.7-.7c-11.3,0-22.6.127-33.9.184-2.153.01-4.307.025-6.46.026-3.088,0-3.093,4.8,0,4.8Z"></path><path class="d" d="M268.541,145.683a5.521,5.521,0,0,0-5.63,5.6c0,3.493,2.178,5.7,5.63,5.7,3.533,0,5.631-2.207,5.631-5.7A5.517,5.517,0,0,0,268.541,145.683Z"></path><path class="d" d="M300.265,145.683a5.521,5.521,0,0,0-5.63,5.6c0,3.493,2.178,5.7,5.63,5.7,3.533,0,5.631-2.207,5.631-5.7A5.516,5.516,0,0,0,300.265,145.683Z"></path><path class="e" d="M286.433,35.709a24.64,24.64,0,0,0-25.127,24.973c0,15.589,9.72,25.442,25.128,25.442,15.768,0,25.129-9.853,25.129-25.442A24.618,24.618,0,0,0,286.433,35.709Z"></path><path class="a" d="M273.654,63.649c2.416,2.29,4.857,4.569,7.371,6.751a2.491,2.491,0,0,0,3.394,0c5.469-4.31,10.684-8.954,16.026-13.419a2.419,2.419,0,0,0,0-3.394,2.452,2.452,0,0,0-3.394,0c-5.342,4.465-10.557,9.109-16.026,13.418h3.394c-2.514-2.182-4.955-4.46-7.371-6.75-2.241-2.124-5.641,1.264-3.394,3.394Z"></path><path class="a" d="M2.407,258.612c2.861-32.372-3.366-49.505,3.91-81.178a15.937,15.937,0,0,1,5.765-8.985c9.149-7.131,17.658-10.312,26.771-17.525q1.157-.915,2.3-1.855c2.443-2.012,8.478-2.4,12.892-2.875,3.158,14.829,7.039,33.033,9.2,43.209,6.4-5.5,12.087-12.2,18.277-17.984,2.932-2.738,6.93-5.474,10.65-3.973,2.5,1.009,3.973,3.762,4.155,6.454a17.445,17.445,0,0,1-1.755,7.825c-5.438,12.881-12.418,18.934-18.715,31.417A70.956,70.956,0,0,0,69.9,229.89c-1.484,6.771-1.861,12.04-3.9,16.859-2.206,7.327-12.357,15.221-20.8,24.892"></path><path class="a" d="M81.038,193.255c1.041,1.859,3.483,7.36,3.928,8.624,1.7,4.837,4.546,12.93,4.577,15.79.038,3.534-.733,7.349-3.543,9.491s-7.347,2-9.529-.781l-.161-.2.174,1.113c.527,3.387-1.331,9.186-2.451,10.746a5.4,5.4,0,0,1-4.929,2.391c-1.937-.28-3.4-1.847-4.646-3.357a26.572,26.572,0,0,1-3.751-6.888"></path><path class="d" d="M58.393,230.818a26.521,26.521,0,0,0,3.155,6.31c1.463,2.2,3.356,4.36,5.877,5.326a7.372,7.372,0,0,0,7.929-2.252,14.245,14.245,0,0,0,2.663-5.585,19.173,19.173,0,0,0,.781-7.967,2.415,2.415,0,0,0-2.952-1.676,2.464,2.464,0,0,0-1.677,2.952c-.061-.433-.024-.159-.009.095q.017.293.016.587c0,.489-.039.974-.084,1.461-.043.468.048-.239-.028.232-.035.221-.071.441-.112.661-.088.477-.192.952-.309,1.423a25.336,25.336,0,0,1-.762,2.532c-.074.207-.153.412-.233.617-.032.083-.067.166-.1.249,0-.008.2-.412.075-.186-.152.275-.264.571-.421.844a3.7,3.7,0,0,1-1.237,1.229c-.106.063-.72.324-.4.217a5.588,5.588,0,0,1-.685.186c.374-.074-.167-.008-.3-.007-.018,0-.395-.044-.157,0,.22.036-.228-.067-.27-.08-.114-.033-.23-.067-.34-.111.053.021.267.127.029,0-.212-.115-.416-.238-.619-.37-.222-.144-.049-.021,0,.014-.1-.075-.19-.158-.282-.239q-.327-.286-.63-.6c-.377-.385-.726-.8-1.074-1.207-.059-.07-.114-.143-.174-.213.008.009.27.385.123.155-.118-.183-.256-.355-.378-.535a29.02,29.02,0,0,1-1.611-2.7c-.273-.515-.533-1.038-.772-1.57-.046-.1-.092-.2-.136-.3.092.214.068.176,0-.018-.088-.245-.18-.487-.262-.734a2.454,2.454,0,0,0-2.952-1.677,2.425,2.425,0,0,0-1.676,2.953Z"></path><path class="d" d="M27.905,199.786c6.766-.594,13.253,3.711,20.015,1.341a2.46,2.46,0,0,0,1.677-2.952,2.422,2.422,0,0,0-2.953-1.676c-2.874,1.007-5.8.449-8.747-.216-3.269-.737-6.614-1.594-9.992-1.3a2.464,2.464,0,0,0-2.4,2.4,2.417,2.417,0,0,0,2.4,2.4Z"></path><path class="d" d="M32.3,186.239q5.359,5.829,10.426,11.918a2.409,2.409,0,0,0,3.394,0,2.465,2.465,0,0,0,0-3.394q-5.064-6.087-10.426-11.918a2.418,2.418,0,0,0-3.394,0,2.452,2.452,0,0,0,0,3.394Z"></path><path class="d" d="M42.315,192.778a65.548,65.548,0,0,0,8.84-10.488q.931-1.376,1.8-2.791c.572-.928,1.054-1.975,1.716-2.841,1.074-1.406,3.718-1.838,5.428-2.164a2.422,2.422,0,0,0,1.676-2.952,2.451,2.451,0,0,0-2.952-1.676c-2.451.466-5.124,1.208-7.044,2.886a11.986,11.986,0,0,0-2.21,3.069q-.9,1.521-1.865,3a60.2,60.2,0,0,1-8.782,10.559c-2.231,2.145,1.166,5.536,3.394,3.394Z"></path><path class="d" d="M66.521,212.35a37.81,37.81,0,0,0,6.263,13.3,13.691,13.691,0,0,0,4.2,4.252,9.746,9.746,0,0,0,7.6.648c5.443-1.819,7.6-7.707,7.35-13.049a26.681,26.681,0,0,0-1.283-6.1c-.713-2.433-1.524-4.837-2.352-7.232a77.6,77.6,0,0,0-5.192-12.123c-1.493-2.706-5.639-.287-4.145,2.423.835,1.514,1.543,3.1,2.252,4.677.677,1.507,1.043,2.278,1.533,3.656,1.432,4.022,2.888,8.078,3.918,12.225.1.412.2.825.284,1.241.032.155.192,1.137.134.654a13.033,13.033,0,0,1-.036,2.961,7.942,7.942,0,0,1-2.2,5.116,5.048,5.048,0,0,1-4.67,1.057,4.076,4.076,0,0,1-1.912-1.246c-.191-.2-.386-.4-.571-.6-.118-.131-.617-.759-.464-.556a33.871,33.871,0,0,1-6.089-12.576c-.669-3.014-5.3-1.739-4.628,1.276Z"></path><path class="d" d="M4.807,258.612a247.053,247.053,0,0,0,.68-27.948c-.212-8.137-.617-16.276-.407-24.418a141.347,141.347,0,0,1,3.285-26.993,16.387,16.387,0,0,1,2.344-5.918,18.691,18.691,0,0,1,4.729-4.425c3.957-2.866,8.184-5.31,12.388-7.787a114.3,114.3,0,0,0,14.258-9.733c2.88-2.344,8-2.378,11.894-2.79a2.469,2.469,0,0,0,2.4-2.4,2.416,2.416,0,0,0-2.4-2.4c-4.2.444-8.754.56-12.644,2.362-2.091.969-3.794,2.816-5.636,4.177-2.1,1.553-4.285,2.994-6.508,4.367-4.276,2.64-8.694,5.044-12.9,7.8-4.12,2.7-8.4,5.568-10.716,10.068a27.272,27.272,0,0,0-2.194,7.032q-.793,3.772-1.389,7.584-1.09,7-1.509,14.081C0,209.675.3,218.084.565,226.487a271.348,271.348,0,0,1-.558,32.125,2.419,2.419,0,0,0,2.4,2.4,2.45,2.45,0,0,0,2.4-2.4Z"></path><path class="f" d="M142.318,61.142c7.936-1.675,44.442-9.448,58.245-12.4a5.4,5.4,0,0,1,6.41,4.133c2.727,12.5,7.883,35.923,9.021,41.317,1.744,8.265,8.483,39.843,11.645,54.723a5.4,5.4,0,0,1-4.163,6.412c-25.526,5.424-131.93,28.111-156.422,33.332a4.532,4.532,0,0,1-5.38-3.494c-3.041-14.321-10.1-47.41-11.895-55.9-1.124-5.326-6.164-28.225-8.915-40.827A5.4,5.4,0,0,1,45.011,82C65.219,77.662,136.578,62.353,142.318,61.142Z"></path><path class="d" d="M142.956,63.456q11.733-2.477,23.46-4.984,15.055-3.2,30.11-6.417l2.8-.6a9.2,9.2,0,0,1,2.639-.436c2.628.25,2.817,3.06,3.263,5.1q1.815,8.306,3.638,16.611c1.809,8.257,3.628,16.511,5.381,24.78q3.121,14.721,6.266,29.438,1.716,8.052,3.43,16.1c.456,2.142,1.1,4.327,1.382,6.5.292,2.233-1.369,3.222-3.273,3.627q-8.836,1.878-17.67,3.76-12.717,2.708-25.433,5.418l-29.58,6.3-30.115,6.419L92.22,180.843l-20.341,4.336-3.648.777c-1.288.275-2.783.84-3.779-.377a6.7,6.7,0,0,1-.839-2.822l-.654-3.073-1.5-7.06q-3.4-15.965-6.8-31.927c-1.514-7.116-3.019-14.234-4.571-21.343q-1.825-8.364-3.661-16.726-.925-4.221-1.85-8.443l-.843-3.853a11.609,11.609,0,0,1-.6-3.325c.217-2.2,2.2-2.627,3.982-3.009l4.4-.944,11.076-2.376,27.831-5.969q14.123-3.029,28.245-6.055,10.034-2.151,20.068-4.3,2.113-.452,4.227-.9c3.02-.637,1.742-5.266-1.276-4.628q-6.765,1.428-13.521,2.889Q115.03,64.53,101.9,67.345,87.089,70.519,72.281,73.7L48.224,78.857c-1.44.309-2.961.518-4.365.965a7.882,7.882,0,0,0-5.51,7.742c.142,2.677,1.06,5.444,1.632,8.057l1.929,8.806c1.97,8.989,3.966,17.973,5.872,26.977q2.987,14.108,6,28.209,1.745,8.183,3.487,16.367.742,3.494,1.487,6.988c.58,2.731,1.044,5.345,3.533,7.038,3.109,2.115,7.117.6,10.477-.116l9.192-1.96,24.712-5.268,29.806-6.353,30.865-6.579,28.35-6.04,21.8-4.641,3.987-.848A17.9,17.9,0,0,0,226,156.936a7.939,7.939,0,0,0,3.952-8.66c-.424-2.271-.963-4.527-1.444-6.786q-3.558-16.718-7.121-33.433c-1.572-7.382-3.125-14.769-4.732-22.144q-3.614-16.578-7.255-33.15a7.938,7.938,0,0,0-6.478-6.424c-2.31-.349-4.716.455-6.97.937l-14.21,3.031q-15.523,3.309-31.05,6.609-4.506.957-9.014,1.912C138.659,59.465,139.937,64.093,142.956,63.456Z"></path><path class="d" d="M46.223,101.938c21.7-4.586,92.36-19.524,99.263-20.98,10.743-2.267,62.04-13.211,64.619-13.808.713,3.28,1.445,6.629,2.143,9.819-1.254.314-53.8,11.524-64.687,13.822-7.786,1.643-61.17,12.943-69.453,14.691-5.7,1.2-26.065,5.52-32.035,6.78-.692-3.192-1.428-6.548-2.151-9.838Z"></path><path class="d" d="M50.043,90.661A38.6,38.6,0,0,1,53.2,86.832a.951.951,0,0,1,1.621.446c.388,1.733.882,3.859,1.247,5.473a.948.948,0,0,1-1.262,1.1c-1.346-.509-3.125-1.234-4.36-1.759A.952.952,0,0,1,50.043,90.661Z"></path><path class="g" d="M81.482,139.445c-4.743,1.007-11.667,2.477-14.669,3.113a.994.994,0,0,1-1.181-.77c-.841-3.994-2.626-12.5-3.421-16.273a.993.993,0,0,1,.77-1.179l18.068-3.8a.993.993,0,0,1,1.179.768c.767,3.6,2.753,12.814,3.482,16.226a1,1,0,0,1-.769,1.183Z"></path><path class="d" d="M80.844,137.131l-7.987,1.695-3.64.773-1.681.356c-.241.051-.487.091-.725.154-.919.242.124-.345.633.281l.617,1.059a24.627,24.627,0,0,1-.829-3.694l-.978-4.657-.945-4.5q-.207-.987-.415-1.974l-.184-.872-.095-.456q-.138-.853-.235.849l-1.059.617a25.3,25.3,0,0,1,3.784-.848l5.285-1.111,5.25-1.105,2.23-.469.942-.2c.123-.026.252-.044.373-.078.828-.234-.254.379-.769-.253l-.618-1.059a25.549,25.549,0,0,1,.866,3.8q.484,2.262.971,4.523l.972,4.523q.222,1.029.443,2.06.093.437.187.873l.083.389q.139.816.223-.913l1.059-.617a25.121,25.121,0,0,1-3.758.848,2.4,2.4,0,0,0,1.276,4.629c1.6-.34,3.849-.437,5.056-1.661,1.3-1.317.893-3,.551-4.594q-.881-4.108-1.765-8.216l-.873-4.066A10.216,10.216,0,0,0,84,119.551c-1.716-2.51-5.626-.9-8.04-.393l-8.235,1.733-3.558.748c-1.2.253-2.5.385-3.417,1.309-1.364,1.38-.859,3.162-.509,4.824q.435,2.069.869,4.136.941,4.479,1.883,8.959c.408,1.941,1.1,4.057,3.5,4.107a21.615,21.615,0,0,0,4.616-.878l11.01-2.336a2.4,2.4,0,1,0-1.276-4.629Z"></path><path class="d" d="M85.868,149.877l.878,4.159a2.4,2.4,0,0,0,4.386.573,2.622,2.622,0,0,0,.242-1.849L90.5,148.6a2.4,2.4,0,0,0-4.387-.573,2.627,2.627,0,0,0-.242,1.849Z"></path><path class="d" d="M79.168,151.291l.878,4.159a2.4,2.4,0,0,0,4.386.573,2.623,2.623,0,0,0,.242-1.849l-.877-4.159a2.4,2.4,0,0,0-4.387-.574,2.631,2.631,0,0,0-.242,1.85Z"></path><path class="d" d="M72.468,152.705l.878,4.159a2.4,2.4,0,0,0,4.386.573,2.623,2.623,0,0,0,.242-1.849l-.877-4.159a2.4,2.4,0,0,0-4.387-.574,2.631,2.631,0,0,0-.242,1.85Z"></path><path class="d" d="M65.768,154.118l.878,4.16a2.4,2.4,0,0,0,4.386.573A2.629,2.629,0,0,0,71.274,157l-.877-4.16a2.4,2.4,0,0,0-4.387-.573,2.629,2.629,0,0,0-.242,1.849Z"></path><path class="d" d="M115.1,120.85c-6.54,1.383-13.14,2.587-19.636,4.158a2.8,2.8,0,1,0,1.488,5.4c6.5-1.571,13.1-2.775,19.636-4.158a2.8,2.8,0,0,0-1.488-5.4Z"></path><path class="d" d="M144.952,114.551c-6.54,1.382-13.139,2.586-19.636,4.158a2.8,2.8,0,1,0,1.489,5.4c6.5-1.572,13.1-2.776,19.636-4.158a2.8,2.8,0,0,0-1.489-5.4Z"></path><path class="d" d="M174.807,108.251c-6.54,1.382-13.14,2.587-19.637,4.158a2.8,2.8,0,0,0,1.489,5.4c6.5-1.571,13.1-2.776,19.636-4.158a2.8,2.8,0,0,0-1.488-5.4Z"></path><path class="d" d="M204.406,102.005c-6.54,1.382-13.14,2.587-19.636,4.158a2.8,2.8,0,1,0,1.489,5.4c6.5-1.571,13.1-2.776,19.636-4.158a2.8,2.8,0,0,0-1.489-5.4Z"></path><path class="d" d="M200.97,127.811c2.6,2.09,5.147,4.261,7.841,6.231a2.423,2.423,0,0,0,1.849.242,2.454,2.454,0,0,0,1.435-1.1,2.429,2.429,0,0,0,.242-1.85,2.766,2.766,0,0,0-1.1-1.434c-.317-.232-.63-.47-.94-.709l.485.375c-2.169-1.677-4.279-3.428-6.415-5.146a2.6,2.6,0,0,0-1.7-.7,2.441,2.441,0,0,0-1.7.7,2.415,2.415,0,0,0-.7,1.7,2.334,2.334,0,0,0,.7,1.7Z"></path><path class="d" d="M187.273,130.057c5.874,5.479,12.229,10.5,18.461,15.562,1.171.95,2.343,1.9,3.538,2.819a2.414,2.414,0,0,0,3.284-.861,2.462,2.462,0,0,0-.861-3.284c.524.4.318.247-.008-.01-.2-.158-.4-.316-.6-.475q-.839-.671-1.672-1.348-2.219-1.8-4.422-3.616c-3.429-2.824-6.847-5.665-10.22-8.556-1.387-1.188-2.774-2.379-4.11-3.625-2.257-2.1-5.659,1.282-3.394,3.394Z"></path><path class="a" d="M48.059,198.543c13.733-4.638,22.865-17.23,33.459-27.124,2.932-2.738,6.93-5.474,10.65-3.973,2.5,1.009,3.973,3.762,4.155,6.454a17.445,17.445,0,0,1-1.755,7.825c-5.438,12.881-12.418,18.934-18.715,31.417A70.956,70.956,0,0,0,69.9,229.89c-1.484,6.771-1.861,12.04-3.9,16.859-2.206,7.327-12.357,15.221-20.8,24.892"></path><path class="d" d="M48.7,200.857c10.582-3.639,18.583-11.55,26.2-19.415,1.916-1.977,3.826-3.961,5.786-5.894a29.889,29.889,0,0,1,6.167-5.17c1.91-1.064,4.293-1.519,5.844.375,1.6,1.955,1.411,4.65.78,6.935-1.556,5.634-4.863,10.951-8.062,15.789-3.093,4.678-6.427,9.192-9.245,14.048a76.992,76.992,0,0,0-7.462,17.3c-1.655,5.746-2.193,11.72-3.736,17.484a26.427,26.427,0,0,1-2.656,6.77,38.854,38.854,0,0,1-4.87,6.25c-4.544,4.971-9.495,9.55-13.938,14.617-2.029,2.315,1.353,5.723,3.394,3.395,4.186-4.775,8.812-9.123,13.144-13.759a60.086,60.086,0,0,0,5.278-6.338,27.323,27.323,0,0,0,3.133-6.192c2.083-5.445,2.577-11.313,3.857-16.968a70.4,70.4,0,0,1,7.126-18.593C85.29,200.922,93.7,191.832,97.7,180.257c1.032-2.989,1.514-6.375.421-9.419a9.06,9.06,0,0,0-6.061-5.951c-6.308-1.6-11.6,4.1-15.6,8.095-8.69,8.689-17.025,19.116-29.038,23.247-2.9,1-1.656,5.637,1.276,4.628Z"></path><path class="d" d="M211.692,22.218c-.739,2.228-1.255,4.517-1.88,6.776a2.4,2.4,0,1,0,4.629,1.276c.624-2.259,1.141-4.548,1.879-6.776a2.418,2.418,0,0,0-1.676-2.952,2.456,2.456,0,0,0-2.952,1.676Z"></path><path class="d" d="M224.647,29.057c-1.927,1.329-3.747,2.8-5.62,4.2a2.621,2.621,0,0,0-1.1,1.434,2.454,2.454,0,0,0,.242,1.85,2.425,2.425,0,0,0,1.434,1.1,2.336,2.336,0,0,0,1.85-.242c1.872-1.4,3.693-2.874,5.62-4.2a2.566,2.566,0,0,0,1.1-1.434,2.451,2.451,0,0,0-.242-1.849,2.42,2.42,0,0,0-1.434-1.1,2.377,2.377,0,0,0-1.85.242Z"></path></svg>